<?xml version="1.0" encoding="iso-8859-1"?>
<!-- Generator: Adobe Illustrator 19.0.0, SVG Export Plug-In . SVG Version: 6.00 Build 0)  -->
<svg version="1.1" id="Layer_1" xmlns="http://www.w3.org/2000/svg" xmlns:xlink="http://www.w3.org/1999/xlink" x="0px" y="0px"
	 viewBox="0 0 512 512" style="enable-background:new 0 0 512 512;" xml:space="preserve">
<rect x="8.874" y="155.966" style="fill:#6A563D;" width="494.79" height="347.966"/>
<path style="fill:#A0815C;" d="M503.664,155.966v26.116c-64.129,155.16-216.965,264.336-395.294,264.336
	c-34.259,0-67.571-4.034-99.496-11.649V155.966H503.664z"/>
<g>
	<rect x="44.37" y="186.622" style="fill:#FFFFFF;" width="16.134" height="16.134"/>
	<rect x="450.42" y="186.622" style="fill:#FFFFFF;" width="16.134" height="16.134"/>
	<rect x="44.37" y="463.059" style="fill:#FFFFFF;" width="16.134" height="16.134"/>
	<rect x="450.42" y="463.059" style="fill:#FFFFFF;" width="16.134" height="16.134"/>
</g>
<g>
	<circle style="fill:#A0815C;" cx="24.471" cy="24.202" r="16.134"/>
	<circle style="fill:#A0815C;" cx="487.529" cy="24.202" r="16.134"/>
</g>
<g>
	<polygon style="fill:#FFDA44;" points="76.639,225.277 86.611,245.481 108.908,248.721 92.773,264.448 96.582,286.655 
		76.639,276.17 56.695,286.655 60.504,264.448 44.37,248.721 66.666,245.481 	"/>
	<polygon style="fill:#FFDA44;" points="151.933,225.277 161.905,245.481 184.202,248.721 168.067,264.448 171.876,286.655 
		151.933,276.17 131.99,286.655 135.798,264.448 119.664,248.721 141.961,245.481 	"/>
	<polygon style="fill:#FFDA44;" points="255.462,199.529 272.082,233.204 309.244,238.604 282.353,264.816 288.701,301.828 
		255.462,284.354 222.223,301.828 228.571,264.816 201.681,238.604 238.843,233.204 	"/>
</g>
<path d="M299.416,316.574l-43.953-23.107l-43.953,23.107l8.394-48.942l-35.559-34.661l49.141-7.142l21.976-44.528l21.976,44.528
	l49.141,7.142l-35.559,34.661L299.416,316.574z M255.462,275.239l22.525,11.843l-4.303-25.08l18.222-17.764l-25.184-3.658
	l-11.262-22.821l-11.262,22.821l-25.184,3.658l18.222,17.764l-4.303,25.08L255.462,275.239z"/>
<g>
	<polygon style="fill:#FFDA44;" points="358.454,225.277 368.426,245.481 390.723,248.721 374.588,264.448 378.397,286.655 
		358.454,276.17 338.511,286.655 342.319,264.448 326.185,248.721 348.482,245.481 	"/>
	<polygon style="fill:#FFDA44;" points="434.286,225.277 444.258,245.481 466.555,248.721 450.42,264.448 454.229,286.655 
		434.286,276.17 414.342,286.655 418.151,264.448 402.017,248.721 424.314,245.481 	"/>
</g>
<g>
	<path style="fill:#FFFFFF;" d="M149.493,431.866h-20.684V394.39H92.792v37.476H72.108v-88.641h20.684v37.05h36.016v-37.05h20.684
		V431.866z"/>
	<path style="fill:#FFFFFF;" d="M251.579,387.515c0,6.409-1.106,12.371-3.316,17.887c-2.212,5.516-5.323,10.312-9.339,14.388
		c-4.015,4.077-8.851,7.27-14.51,9.582s-11.934,3.469-18.829,3.469c-6.896,0-13.182-1.156-18.86-3.469
		c-5.678-2.312-10.535-5.505-14.57-9.582c-4.036-4.076-7.158-8.872-9.369-14.388c-2.212-5.516-3.316-11.478-3.316-17.887
		c0-6.408,1.105-12.37,3.316-17.887c2.21-5.515,5.333-10.301,9.369-14.358s8.892-7.24,14.57-9.553
		c5.678-2.31,11.964-3.468,18.86-3.468c6.895,0,13.171,1.167,18.829,3.498c5.658,2.333,10.495,5.528,14.51,9.582
		c4.015,4.056,7.127,8.843,9.339,14.359C250.473,375.206,251.579,381.147,251.579,387.515z M230.529,387.515
		c0-4.38-0.569-8.324-1.704-11.833c-1.136-3.508-2.768-6.479-4.897-8.913c-2.129-2.434-4.736-4.298-7.818-5.596
		c-3.083-1.298-6.591-1.948-10.525-1.948c-3.976,0-7.513,0.65-10.616,1.948c-3.103,1.298-5.719,3.162-7.848,5.596
		c-2.129,2.434-3.763,5.405-4.897,8.913c-1.136,3.509-1.703,7.453-1.703,11.833c0,4.421,0.567,8.387,1.703,11.894
		c1.135,3.509,2.769,6.479,4.897,8.913s4.746,4.289,7.848,5.566c3.102,1.278,6.641,1.917,10.616,1.917
		c3.934,0,7.442-0.639,10.525-1.917c3.082-1.278,5.688-3.132,7.818-5.566c2.13-2.434,3.761-5.404,4.897-8.913
		S230.529,391.936,230.529,387.515z"/>
	<path style="fill:#FFFFFF;" d="M322.15,343.225v16.304h-24.943v72.336h-20.564v-72.336h-24.943v-16.304H322.15z"/>
	<path style="fill:#FFFFFF;" d="M387.732,343.225v15.817h-36.381v20.684h27.864v15.21h-27.864v21.11h36.381v15.818h-57.066v-88.641
		H387.732z"/>
	<path style="fill:#FFFFFF;" d="M419.976,415.44h32.852v16.426h-53.416v-88.641h20.564V415.44z"/>
</g>
<path d="M406.857,32.269h57.858c3.33,9.389,12.297,16.134,22.814,16.134c13.345,0,24.202-10.857,24.202-24.202S500.875,0,487.529,0
	c-10.516,0-19.484,6.745-22.814,16.134H47.285C43.955,6.745,34.987,0,24.471,0C11.125,0,0.269,10.857,0.269,24.202
	s10.856,24.202,24.202,24.202c10.516,0,19.484-6.745,22.814-16.134h53.018v115.63H0.807V512h510.924V147.899H406.857V32.269z
	 M487.529,16.134c4.449,0,8.067,3.618,8.067,8.067s-3.618,8.067-8.067,8.067s-8.067-3.618-8.067-8.067
	S483.081,16.134,487.529,16.134z M24.471,32.269c-4.449,0-8.067-3.618-8.067-8.067s3.618-8.067,8.067-8.067s8.067,3.618,8.067,8.067
	S28.919,32.269,24.471,32.269z M116.437,32.269h274.286v115.63H116.437V32.269z M495.597,495.866H16.941V164.034h478.655V495.866z"
	/>
<g>
</g>
<g>
</g>
<g>
</g>
<g>
</g>
<g>
</g>
<g>
</g>
<g>
</g>
<g>
</g>
<g>
</g>
<g>
</g>
<g>
</g>
<g>
</g>
<g>
</g>
<g>
</g>
<g>
</g>
</svg>
